<svg xmlns="http://www.w3.org/2000/svg" xmlns:xlink="http://www.w3.org/1999/xlink" width="500" zoomAndPan="magnify" viewBox="0 0 375 374.999991" height="500" preserveAspectRatio="xMidYMid meet" version="1.0"><defs><clipPath id="id1"><path d="M 131.25 131.25 L 271.5 131.25 L 271.5 271.5 L 131.25 271.5 Z M 131.25 131.25 " clip-rule="nonzero"/></clipPath><clipPath id="id2"><path d="M 201.375 131.25 C 162.644531 131.25 131.25 162.644531 131.25 201.375 C 131.25 240.105469 162.644531 271.5 201.375 271.5 C 240.105469 271.5 271.5 240.105469 271.5 201.375 C 271.5 162.644531 240.105469 131.25 201.375 131.25 " clip-rule="nonzero"/></clipPath><clipPath id="id3"><path d="M 154.570312 154.570312 L 248.320312 154.570312 L 248.320312 248.320312 L 154.570312 248.320312 Z M 154.570312 154.570312 " clip-rule="nonzero"/></clipPath><clipPath id="id4"><path d="M 213.753906 154.570312 L 189.132812 154.570312 C 187.734375 154.570312 186.394531 155.125 185.40625 156.109375 C 184.421875 157.097656 183.867188 158.4375 183.867188 159.835938 L 183.867188 178.597656 C 183.867188 179.996094 183.3125 181.335938 182.324219 182.324219 C 181.335938 183.3125 179.996094 183.867188 178.597656 183.867188 L 159.835938 183.867188 C 158.4375 183.867188 157.097656 184.421875 156.109375 185.40625 C 155.125 186.394531 154.570312 187.734375 154.570312 189.132812 L 154.570312 213.753906 C 154.570312 215.152344 155.125 216.492188 156.109375 217.480469 C 157.097656 218.46875 158.4375 219.023438 159.835938 219.023438 L 178.597656 219.023438 C 179.996094 219.023438 181.335938 219.578125 182.324219 220.5625 C 183.3125 221.550781 183.867188 222.890625 183.867188 224.289062 L 183.867188 243.050781 C 183.867188 244.449219 184.421875 245.789062 185.40625 246.777344 C 186.394531 247.765625 187.734375 248.320312 189.132812 248.320312 L 213.753906 248.320312 C 215.152344 248.320312 216.492188 247.765625 217.480469 246.777344 C 218.46875 245.789062 219.023438 244.449219 219.023438 243.050781 L 219.023438 224.289062 C 219.023438 222.890625 219.578125 221.550781 220.5625 220.5625 C 221.550781 219.578125 222.890625 219.023438 224.289062 219.023438 L 243.050781 219.023438 C 244.449219 219.023438 245.789062 218.46875 246.777344 217.480469 C 247.765625 216.492188 248.320312 215.152344 248.320312 213.753906 L 248.320312 189.132812 C 248.320312 187.734375 247.765625 186.394531 246.777344 185.40625 C 245.789062 184.421875 244.449219 183.867188 243.050781 183.867188 L 224.289062 183.867188 C 222.890625 183.867188 221.550781 183.3125 220.5625 182.324219 C 219.578125 181.335938 219.023438 179.996094 219.023438 178.597656 L 219.023438 159.835938 C 219.023438 158.4375 218.46875 157.097656 217.480469 156.109375 C 216.492188 155.125 215.152344 154.570312 213.753906 154.570312 " clip-rule="nonzero"/></clipPath></defs><g clip-path="url(#id1)"><g clip-path="url(#id2)"><path stroke-linecap="butt" transform="matrix(0.750815, 0, 0, 0.750815, 131.249996, 131.249991)" fill="none" stroke-linejoin="miter" d="M 93.398457 0.0000114792 C 41.813918 0.0000114792 0.0000054857 41.813924 0.0000054857 93.398463 C 0.0000054857 144.983002 41.813918 186.796914 93.398457 186.796914 C 144.982996 186.796914 186.796908 144.983002 186.796908 93.398463 C 186.796908 41.813924 144.982996 0.0000114792 93.398457 0.0000114792 " stroke="#000000" stroke-width="8" stroke-opacity="1" stroke-miterlimit="4"/></g></g><g clip-path="url(#id3)"><g clip-path="url(#id4)"><path stroke-linecap="butt" transform="matrix(0.752351, 0, 0, 0.752351, 154.568519, 154.568515)" fill="none" stroke-linejoin="miter" d="M 78.667245 0.00238964 L 45.941707 0.00238964 C 44.082951 0.00238964 42.302075 0.739662 40.988484 2.04806 C 39.680086 3.361651 38.942814 5.142526 38.942814 7.001283 L 38.942814 31.938734 C 38.942814 33.797491 38.205542 35.578367 36.891951 36.891957 C 35.578361 38.205548 33.797485 38.94282 31.938729 38.94282 L 7.001277 38.94282 C 5.14252 38.94282 3.361645 39.680092 2.048054 40.98849 C 0.739656 42.302081 0.00238366 44.082957 0.00238366 45.941713 L 0.00238366 78.667251 C 0.00238366 80.526007 0.739656 82.306883 2.048054 83.620474 C 3.361645 84.934064 5.14252 85.671336 7.001277 85.671336 L 31.938729 85.671336 C 33.797485 85.671336 35.578361 86.408608 36.891951 87.717007 C 38.205542 89.030597 38.942814 90.811473 38.942814 92.670229 L 38.942814 117.607681 C 38.942814 119.466438 39.680086 121.247313 40.988484 122.560904 C 42.302075 123.874494 44.082951 124.611766 45.941707 124.611766 L 78.667245 124.611766 C 80.526001 124.611766 82.306877 123.874494 83.620468 122.560904 C 84.934058 121.247313 85.67133 119.466438 85.67133 117.607681 L 85.67133 92.670229 C 85.67133 90.811473 86.408602 89.030597 87.717001 87.717007 C 89.030591 86.408608 90.811467 85.671336 92.670224 85.671336 L 117.607675 85.671336 C 119.466432 85.671336 121.247307 84.934064 122.560898 83.620474 C 123.874488 82.306883 124.61176 80.526007 124.61176 78.667251 L 124.61176 45.941713 C 124.61176 44.082957 123.874488 42.302081 122.560898 40.98849 C 121.247307 39.680092 119.466432 38.94282 117.607675 38.94282 L 92.670224 38.94282 C 90.811467 38.94282 89.030591 38.205548 87.717001 36.891957 C 86.408602 35.578367 85.67133 33.797491 85.67133 31.938734 L 85.67133 7.001283 C 85.67133 5.142526 84.934058 3.361651 83.620468 2.04806 C 82.306877 0.739662 80.526001 0.00238964 78.667245 0.00238964 " stroke="#000000" stroke-width="8" stroke-opacity="1" stroke-miterlimit="4"/></g></g></svg>